<?xml version="1.0" encoding="UTF-8" standalone="no"?>
<svg
   xmlns:dc="http://purl.org/dc/elements/1.1/"
   xmlns:cc="http://creativecommons.org/ns#"
   xmlns:rdf="http://www.w3.org/1999/02/22-rdf-syntax-ns#"
   xmlns:svg="http://www.w3.org/2000/svg"
   xmlns="http://www.w3.org/2000/svg"
   xmlns:sodipodi="http://sodipodi.sourceforge.net/DTD/sodipodi-0.dtd"
   xmlns:inkscape="http://www.inkscape.org/namespaces/inkscape"
   version="1.0"
   width="9.2571745cm"
   height="9.296648cm"
   id="svg2"
   inkscape:version="0.91 r13725"
   viewBox="0 0 92.571744 92.966482"
   sodipodi:docname="logo.png">
  <metadata
     id="metadata350">
    <rdf:RDF>
      <cc:Work
         rdf:about="">
        <dc:format>image/svg+xml</dc:format>
        <dc:type
           rdf:resource="http://purl.org/dc/dcmitype/StillImage" />
        <dc:title></dc:title>
      </cc:Work>
    </rdf:RDF>
  </metadata>
  <sodipodi:namedview
     pagecolor="#ffffff"
     bordercolor="#666666"
     borderopacity="1"
     objecttolerance="10"
     gridtolerance="10"
     guidetolerance="10"
     inkscape:pageopacity="0"
     inkscape:pageshadow="2"
     inkscape:window-width="1292"
     inkscape:window-height="745"
     id="namedview348"
     inkscape:document-units="mm"
     showgrid="false"
     inkscape:zoom="0.83946362"
     inkscape:cx="414.43512"
     inkscape:cy="225.48099"
     inkscape:window-x="66"
     inkscape:window-y="-8"
     inkscape:window-maximized="1"
     inkscape:current-layer="layer1"
     fit-margin-top="0.2"
     fit-margin-left="0.2"
     fit-margin-right="0.2"
     fit-margin-bottom="0.2"
     units="cm"
     borderlayer="false" />
  <defs
     id="defs4">
    <clipPath
       clipPathUnits="userSpaceOnUse"
       id="clipEmfPath1">
      <path
         d=""
         id="path7"
         inkscape:connector-curvature="0" />
    </clipPath>
  </defs>
  <path
     style="fill:#003399;fill-opacity:1;fill-rule:evenodd;stroke:none"
     clip-path="url(#clipEmfPath1)"
     d="m 191.899,650.657 0,24.137 0.3,0 0,-24.137 -0.3,0 z"
     id="path24"
     inkscape:connector-curvature="0"
     transform="translate(-57.933567,-47.496257)" />
  <path
     style="fill:#033399;fill-opacity:1;fill-rule:evenodd;stroke:none"
     clip-path="url(#clipEmfPath1)"
     d="m 192.199,650.657 0,24.137 0.3,0 0,-24.137 -0.3,0 z"
     id="path26"
     inkscape:connector-curvature="0"
     transform="translate(-57.933567,-47.496257)" />
  <path
     style="fill:#053399;fill-opacity:1;fill-rule:evenodd;stroke:none"
     clip-path="url(#clipEmfPath1)"
     d="m 192.499,650.657 0,24.137 0.149,0 0,-24.137 -0.149,0 z"
     id="path28"
     inkscape:connector-curvature="0"
     transform="translate(-57.933567,-47.496257)" />
  <path
     style="fill:#073399;fill-opacity:1;fill-rule:evenodd;stroke:none"
     clip-path="url(#clipEmfPath1)"
     d="m 192.648,650.657 0,24.137 0.3,0 0,-24.137 -0.3,0 z"
     id="path30"
     inkscape:connector-curvature="0"
     transform="translate(-57.933567,-47.496257)" />
  <path
     style="fill:#093399;fill-opacity:1;fill-rule:evenodd;stroke:none"
     clip-path="url(#clipEmfPath1)"
     d="m 192.948,650.657 0,24.137 0.15,0 0,-24.137 -0.15,0 z"
     id="path32"
     inkscape:connector-curvature="0"
     transform="translate(-57.933567,-47.496257)" />
  <path
     style="fill:#0b3399;fill-opacity:1;fill-rule:evenodd;stroke:none"
     clip-path="url(#clipEmfPath1)"
     d="m 193.098,650.657 0,24.137 0.6,0 0,-24.137 -0.6,0 z"
     id="path34"
     inkscape:connector-curvature="0"
     transform="translate(-57.933567,-47.496257)" />
  <path
     style="fill:#0d3399;fill-opacity:1;fill-rule:evenodd;stroke:none"
     clip-path="url(#clipEmfPath1)"
     d="m 193.698,650.657 0,24.137 0.6,0 0,-24.137 -0.6,0 z"
     id="path36"
     inkscape:connector-curvature="0"
     transform="translate(-57.933567,-47.496257)" />
  <path
     style="fill:#0f3499;fill-opacity:1;fill-rule:evenodd;stroke:none"
     clip-path="url(#clipEmfPath1)"
     d="m 194.298,650.657 0,24.137 0.749,0 0,-24.137 -0.749,0 z"
     id="path38"
     inkscape:connector-curvature="0"
     transform="translate(-57.933567,-47.496257)" />
  <path
     style="fill:#113499;fill-opacity:1;fill-rule:evenodd;stroke:none"
     clip-path="url(#clipEmfPath1)"
     d="m 195.047,650.657 0,24.137 0.9,0 0,-24.137 -0.9,0 z"
     id="path40"
     inkscape:connector-curvature="0"
     transform="translate(-57.933567,-47.496257)" />
  <path
     style="fill:#133499;fill-opacity:1;fill-rule:evenodd;stroke:none"
     clip-path="url(#clipEmfPath1)"
     d="m 195.947,650.657 0,24.137 0.749,0 0,-24.137 -0.749,0 z"
     id="path42"
     inkscape:connector-curvature="0"
     transform="translate(-57.933567,-47.496257)" />
  <path
     style="fill:#153599;fill-opacity:1;fill-rule:evenodd;stroke:none"
     clip-path="url(#clipEmfPath1)"
     d="m 196.696,650.657 0,24.137 1.2,0 0,-24.137 -1.2,0 z"
     id="path44"
     inkscape:connector-curvature="0"
     transform="translate(-57.933567,-47.496257)" />
  <path
     style="fill:#173699;fill-opacity:1;fill-rule:evenodd;stroke:none"
     clip-path="url(#clipEmfPath1)"
     d="m 197.896,650.657 0,24.137 1.199,0 0,-24.137 -1.199,0 z"
     id="path46"
     inkscape:connector-curvature="0"
     transform="translate(-57.933567,-47.496257)" />
  <path
     style="fill:#193699;fill-opacity:1;fill-rule:evenodd;stroke:none"
     clip-path="url(#clipEmfPath1)"
     d="m 199.095,650.657 0,24.137 1.799,0 0,-24.137 -1.799,0 z"
     id="path48"
     inkscape:connector-curvature="0"
     transform="translate(-57.933567,-47.496257)" />
  <path
     style="fill:#1b3698;fill-opacity:1;fill-rule:evenodd;stroke:none"
     clip-path="url(#clipEmfPath1)"
     d="m 200.894,650.657 0,24.137 1.199,0 0,-24.137 -1.199,0 z"
     id="path50"
     inkscape:connector-curvature="0"
     transform="translate(-57.933567,-47.496257)" />
  <path
     style="fill:#1d3698;fill-opacity:1;fill-rule:evenodd;stroke:none"
     clip-path="url(#clipEmfPath1)"
     d="m 202.093,650.657 0,24.137 1.35,0 0,-24.137 -1.35,0 z"
     id="path52"
     inkscape:connector-curvature="0"
     transform="translate(-57.933567,-47.496257)" />
  <path
     style="fill:#1f3798;fill-opacity:1;fill-rule:evenodd;stroke:none"
     clip-path="url(#clipEmfPath1)"
     d="m 203.443,650.657 0,24.137 1.199,0 0,-24.137 -1.199,0 z"
     id="path54"
     inkscape:connector-curvature="0"
     transform="translate(-57.933567,-47.496257)" />
  <path
     style="fill:#213898;fill-opacity:1;fill-rule:evenodd;stroke:none"
     clip-path="url(#clipEmfPath1)"
     d="m 204.642,650.657 0,24.137 1.499,0 0,-24.137 -1.499,0 z"
     id="path56"
     inkscape:connector-curvature="0"
     transform="translate(-57.933567,-47.496257)" />
  <path
     style="fill:#233898;fill-opacity:1;fill-rule:evenodd;stroke:none"
     clip-path="url(#clipEmfPath1)"
     d="m 206.141,650.657 0,24.137 2.099,0 0,-24.137 -2.099,0 z"
     id="path58"
     inkscape:connector-curvature="0"
     transform="translate(-57.933567,-47.496257)" />
  <path
     style="fill:#253998;fill-opacity:1;fill-rule:evenodd;stroke:none"
     clip-path="url(#clipEmfPath1)"
     d="m 208.24,650.657 0,24.137 0.75,0 0,-24.137 -0.75,0 z"
     id="path60"
     inkscape:connector-curvature="0"
     transform="translate(-57.933567,-47.496257)" />
  <path
     style="fill:#273a98;fill-opacity:1;fill-rule:evenodd;stroke:none"
     clip-path="url(#clipEmfPath1)"
     d="m 208.99,650.657 0,24.137 1.799,0 0,-24.137 -1.799,0 z"
     id="path62"
     inkscape:connector-curvature="0"
     transform="translate(-57.933567,-47.496257)" />
  <path
     style="fill:#293a98;fill-opacity:1;fill-rule:evenodd;stroke:none"
     clip-path="url(#clipEmfPath1)"
     d="m 210.789,650.657 0,24.137 1.499,0 0,-24.137 -1.499,0 z"
     id="path64"
     inkscape:connector-curvature="0"
     transform="translate(-57.933567,-47.496257)" />
  <path
     style="fill:#2b3b98;fill-opacity:1;fill-rule:evenodd;stroke:none"
     clip-path="url(#clipEmfPath1)"
     d="m 212.288,650.657 0,24.137 1.649,0 0,-24.137 -1.649,0 z"
     id="path66"
     inkscape:connector-curvature="0"
     transform="translate(-57.933567,-47.496257)" />
  <path
     style="fill:#2d3c98;fill-opacity:1;fill-rule:evenodd;stroke:none"
     clip-path="url(#clipEmfPath1)"
     d="m 213.937,650.657 0,24.137 2.399,0 0,-24.137 -2.399,0 z"
     id="path68"
     inkscape:connector-curvature="0"
     transform="translate(-57.933567,-47.496257)" />
  <path
     style="fill:#2f3d97;fill-opacity:1;fill-rule:evenodd;stroke:none"
     clip-path="url(#clipEmfPath1)"
     d="m 216.336,650.657 0,24.137 1.799,0 0,-24.137 -1.799,0 z"
     id="path70"
     inkscape:connector-curvature="0"
     transform="translate(-57.933567,-47.496257)" />
  <path
     style="fill:#313e97;fill-opacity:1;fill-rule:evenodd;stroke:none"
     clip-path="url(#clipEmfPath1)"
     d="m 218.135,650.657 0,24.137 1.649,0 0,-24.137 -1.649,0 z"
     id="path72"
     inkscape:connector-curvature="0"
     transform="translate(-57.933567,-47.496257)" />
  <path
     style="fill:#333f97;fill-opacity:1;fill-rule:evenodd;stroke:none"
     clip-path="url(#clipEmfPath1)"
     d="m 219.784,650.657 0,24.137 2.099,0 0,-24.137 -2.099,0 z"
     id="path74"
     inkscape:connector-curvature="0"
     transform="translate(-57.933567,-47.496257)" />
  <path
     style="fill:#353f97;fill-opacity:1;fill-rule:evenodd;stroke:none"
     clip-path="url(#clipEmfPath1)"
     d="m 221.883,650.657 0,24.137 1.499,0 0,-24.137 -1.499,0 z"
     id="path76"
     inkscape:connector-curvature="0"
     transform="translate(-57.933567,-47.496257)" />
  <path
     style="fill:#374197;fill-opacity:1;fill-rule:evenodd;stroke:none"
     clip-path="url(#clipEmfPath1)"
     d="m 223.382,650.657 0,24.137 2.249,0 0,-24.137 -2.249,0 z"
     id="path78"
     inkscape:connector-curvature="0"
     transform="translate(-57.933567,-47.496257)" />
  <path
     style="fill:#394196;fill-opacity:1;fill-rule:evenodd;stroke:none"
     clip-path="url(#clipEmfPath1)"
     d="m 225.631,650.657 0,24.137 1.499,0 0,-24.137 -1.499,0 z"
     id="path80"
     inkscape:connector-curvature="0"
     transform="translate(-57.933567,-47.496257)" />
  <path
     style="fill:#3b4396;fill-opacity:1;fill-rule:evenodd;stroke:none"
     clip-path="url(#clipEmfPath1)"
     d="m 227.13,650.657 0,24.137 2.099,0 0,-24.137 -2.099,0 z"
     id="path82"
     inkscape:connector-curvature="0"
     transform="translate(-57.933567,-47.496257)" />
  <path
     style="fill:#3d4496;fill-opacity:1;fill-rule:evenodd;stroke:none"
     clip-path="url(#clipEmfPath1)"
     d="m 229.229,650.657 0,24.137 1.649,0 0,-24.137 -1.649,0 z"
     id="path84"
     inkscape:connector-curvature="0"
     transform="translate(-57.933567,-47.496257)" />
  <path
     style="fill:#3f4596;fill-opacity:1;fill-rule:evenodd;stroke:none"
     clip-path="url(#clipEmfPath1)"
     d="m 230.878,650.657 0,24.137 2.099,0 0,-24.137 -2.099,0 z"
     id="path86"
     inkscape:connector-curvature="0"
     transform="translate(-57.933567,-47.496257)" />
  <path
     style="fill:#414595;fill-opacity:1;fill-rule:evenodd;stroke:none"
     clip-path="url(#clipEmfPath1)"
     d="m 232.977,650.657 0,24.137 1.499,0 0,-24.137 -1.499,0 z"
     id="path88"
     inkscape:connector-curvature="0"
     transform="translate(-57.933567,-47.496257)" />
  <path
     style="fill:#434795;fill-opacity:1;fill-rule:evenodd;stroke:none"
     clip-path="url(#clipEmfPath1)"
     d="m 234.476,650.657 0,24.137 2.249,0 0,-24.137 -2.249,0 z"
     id="path90"
     inkscape:connector-curvature="0"
     transform="translate(-57.933567,-47.496257)" />
  <path
     style="fill:#454795;fill-opacity:1;fill-rule:evenodd;stroke:none"
     clip-path="url(#clipEmfPath1)"
     d="m 236.725,650.657 0,24.137 1.499,0 0,-24.137 -1.499,0 z"
     id="path92"
     inkscape:connector-curvature="0"
     transform="translate(-57.933567,-47.496257)" />
  <path
     style="fill:#474995;fill-opacity:1;fill-rule:evenodd;stroke:none"
     clip-path="url(#clipEmfPath1)"
     d="m 238.224,650.657 0,24.137 2.549,0 0,-24.137 -2.549,0 z"
     id="path94"
     inkscape:connector-curvature="0"
     transform="translate(-57.933567,-47.496257)" />
  <path
     style="fill:#494a94;fill-opacity:1;fill-rule:evenodd;stroke:none"
     clip-path="url(#clipEmfPath1)"
     d="m 240.773,650.657 0,24.137 1.499,0 0,-24.137 -1.499,0 z"
     id="path96"
     inkscape:connector-curvature="0"
     transform="translate(-57.933567,-47.496257)" />
  <path
     style="fill:#4b4b94;fill-opacity:1;fill-rule:evenodd;stroke:none"
     clip-path="url(#clipEmfPath1)"
     d="m 242.272,650.657 0,24.137 2.099,0 0,-24.137 -2.099,0 z"
     id="path98"
     inkscape:connector-curvature="0"
     transform="translate(-57.933567,-47.496257)" />
  <path
     style="fill:#4d4d94;fill-opacity:1;fill-rule:evenodd;stroke:none"
     clip-path="url(#clipEmfPath1)"
     d="m 244.371,650.657 0,24.137 1.649,0 0,-24.137 -1.649,0 z"
     id="path100"
     inkscape:connector-curvature="0"
     transform="translate(-57.933567,-47.496257)" />
  <path
     style="fill:#4f4e94;fill-opacity:1;fill-rule:evenodd;stroke:none"
     clip-path="url(#clipEmfPath1)"
     d="m 246.02,650.657 0,24.137 2.099,0 0,-24.137 -2.099,0 z"
     id="path102"
     inkscape:connector-curvature="0"
     transform="translate(-57.933567,-47.496257)" />
  <path
     style="fill:#514f93;fill-opacity:1;fill-rule:evenodd;stroke:none"
     clip-path="url(#clipEmfPath1)"
     d="m 248.119,650.657 0,24.137 1.499,0 0,-24.137 -1.499,0 z"
     id="path104"
     inkscape:connector-curvature="0"
     transform="translate(-57.933567,-47.496257)" />
  <path
     style="fill:#535093;fill-opacity:1;fill-rule:evenodd;stroke:none"
     clip-path="url(#clipEmfPath1)"
     d="m 249.618,650.657 0,24.137 2.249,0 0,-24.137 -2.249,0 z"
     id="path106"
     inkscape:connector-curvature="0"
     transform="translate(-57.933567,-47.496257)" />
  <path
     style="fill:#555193;fill-opacity:1;fill-rule:evenodd;stroke:none"
     clip-path="url(#clipEmfPath1)"
     d="m 251.867,650.657 0,24.137 1.499,0 0,-24.137 -1.499,0 z"
     id="path108"
     inkscape:connector-curvature="0"
     transform="translate(-57.933567,-47.496257)" />
  <path
     style="fill:#575292;fill-opacity:1;fill-rule:evenodd;stroke:none"
     clip-path="url(#clipEmfPath1)"
     d="m 253.366,650.657 0,24.137 2.099,0 0,-24.137 -2.099,0 z"
     id="path110"
     inkscape:connector-curvature="0"
     transform="translate(-57.933567,-47.496257)" />
  <path
     style="fill:#595492;fill-opacity:1;fill-rule:evenodd;stroke:none"
     clip-path="url(#clipEmfPath1)"
     d="m 255.465,650.657 0,24.137 1.649,0 0,-24.137 -1.649,0 z"
     id="path112"
     inkscape:connector-curvature="0"
     transform="translate(-57.933567,-47.496257)" />
  <path
     style="fill:#5b5592;fill-opacity:1;fill-rule:evenodd;stroke:none"
     clip-path="url(#clipEmfPath1)"
     d="m 257.114,650.657 0,24.137 2.099,0 0,-24.137 -2.099,0 z"
     id="path114"
     inkscape:connector-curvature="0"
     transform="translate(-57.933567,-47.496257)" />
  <path
     style="fill:#5d5791;fill-opacity:1;fill-rule:evenodd;stroke:none"
     clip-path="url(#clipEmfPath1)"
     d="m 259.213,650.657 0,24.137 2.099,0 0,-24.137 -2.099,0 z"
     id="path116"
     inkscape:connector-curvature="0"
     transform="translate(-57.933567,-47.496257)" />
  <path
     style="fill:#5f5791;fill-opacity:1;fill-rule:evenodd;stroke:none"
     clip-path="url(#clipEmfPath1)"
     d="m 261.312,650.657 0,24.137 1.649,0 0,-24.137 -1.649,0 z"
     id="path118"
     inkscape:connector-curvature="0"
     transform="translate(-57.933567,-47.496257)" />
  <path
     style="fill:#615990;fill-opacity:1;fill-rule:evenodd;stroke:none"
     clip-path="url(#clipEmfPath1)"
     d="m 262.961,650.657 0,24.137 2.099,0 0,-24.137 -2.099,0 z"
     id="path120"
     inkscape:connector-curvature="0"
     transform="translate(-57.933567,-47.496257)" />
  <path
     style="fill:#635a90;fill-opacity:1;fill-rule:evenodd;stroke:none"
     clip-path="url(#clipEmfPath1)"
     d="m 265.06,650.657 0,24.137 1.5,0 0,-24.137 -1.5,0 z"
     id="path122"
     inkscape:connector-curvature="0"
     transform="translate(-57.933567,-47.496257)" />
  <path
     style="fill:#655c90;fill-opacity:1;fill-rule:evenodd;stroke:none"
     clip-path="url(#clipEmfPath1)"
     d="m 266.56,650.657 0,24.137 1.649,0 0,-24.137 -1.649,0 z"
     id="path124"
     inkscape:connector-curvature="0"
     transform="translate(-57.933567,-47.496257)" />
  <path
     style="fill:#675d8f;fill-opacity:1;fill-rule:evenodd;stroke:none"
     clip-path="url(#clipEmfPath1)"
     d="m 268.209,650.657 0,24.137 2.099,0 0,-24.137 -2.099,0 z"
     id="path126"
     inkscape:connector-curvature="0"
     transform="translate(-57.933567,-47.496257)" />
  <path
     style="fill:#695e8f;fill-opacity:1;fill-rule:evenodd;stroke:none"
     clip-path="url(#clipEmfPath1)"
     d="m 270.308,650.657 0,24.137 1.499,0 0,-24.137 -1.499,0 z"
     id="path128"
     inkscape:connector-curvature="0"
     transform="translate(-57.933567,-47.496257)" />
  <path
     style="fill:#6b5f8e;fill-opacity:1;fill-rule:evenodd;stroke:none"
     clip-path="url(#clipEmfPath1)"
     d="m 271.807,650.657 0,24.137 2.249,0 0,-24.137 -2.249,0 z"
     id="path130"
     inkscape:connector-curvature="0"
     transform="translate(-57.933567,-47.496257)" />
  <path
     style="fill:#6d618e;fill-opacity:1;fill-rule:evenodd;stroke:none"
     clip-path="url(#clipEmfPath1)"
     d="m 274.056,650.657 0,24.137 2.098,0 0,-24.137 -2.098,0 z"
     id="path132"
     inkscape:connector-curvature="0"
     transform="translate(-57.933567,-47.496257)" />
  <path
     style="fill:#6f628e;fill-opacity:1;fill-rule:evenodd;stroke:none"
     clip-path="url(#clipEmfPath1)"
     d="m 276.154,650.657 0,24.137 1.5,0 0,-24.137 -1.5,0 z"
     id="path134"
     inkscape:connector-curvature="0"
     transform="translate(-57.933567,-47.496257)" />
  <path
     style="fill:#71638d;fill-opacity:1;fill-rule:evenodd;stroke:none"
     clip-path="url(#clipEmfPath1)"
     d="m 277.654,650.657 0,24.137 1.649,0 0,-24.137 -1.649,0 z"
     id="path136"
     inkscape:connector-curvature="0"
     transform="translate(-57.933567,-47.496257)" />
  <path
     style="fill:#73658c;fill-opacity:1;fill-rule:evenodd;stroke:none"
     clip-path="url(#clipEmfPath1)"
     d="m 279.303,650.657 0,24.137 2.099,0 0,-24.137 -2.099,0 z"
     id="path138"
     inkscape:connector-curvature="0"
     transform="translate(-57.933567,-47.496257)" />
  <path
     style="fill:#75668c;fill-opacity:1;fill-rule:evenodd;stroke:none"
     clip-path="url(#clipEmfPath1)"
     d="m 281.402,650.657 0,24.137 2.249,0 0,-24.137 -2.249,0 z"
     id="path140"
     inkscape:connector-curvature="0"
     transform="translate(-57.933567,-47.496257)" />
  <path
     style="fill:#77678b;fill-opacity:1;fill-rule:evenodd;stroke:none"
     clip-path="url(#clipEmfPath1)"
     d="m 283.651,650.657 0,24.137 1.499,0 0,-24.137 -1.499,0 z"
     id="path142"
     inkscape:connector-curvature="0"
     transform="translate(-57.933567,-47.496257)" />
  <path
     style="fill:#79698b;fill-opacity:1;fill-rule:evenodd;stroke:none"
     clip-path="url(#clipEmfPath1)"
     d="m 285.15,650.657 0,24.137 1.499,0 0,-24.137 -1.499,0 z"
     id="path144"
     inkscape:connector-curvature="0"
     transform="translate(-57.933567,-47.496257)" />
  <path
     style="fill:#7b6a8a;fill-opacity:1;fill-rule:evenodd;stroke:none"
     clip-path="url(#clipEmfPath1)"
     d="m 286.649,650.657 0,24.137 2.249,0 0,-24.137 -2.249,0 z"
     id="path146"
     inkscape:connector-curvature="0"
     transform="translate(-57.933567,-47.496257)" />
  <path
     style="fill:#7d6c8a;fill-opacity:1;fill-rule:evenodd;stroke:none"
     clip-path="url(#clipEmfPath1)"
     d="m 288.898,650.657 0,24.137 1.499,0 0,-24.137 -1.499,0 z"
     id="path148"
     inkscape:connector-curvature="0"
     transform="translate(-57.933567,-47.496257)" />
  <path
     style="fill:#7f6d89;fill-opacity:1;fill-rule:evenodd;stroke:none"
     clip-path="url(#clipEmfPath1)"
     d="m 290.397,650.657 0,24.137 2.099,0 0,-24.137 -2.099,0 z"
     id="path150"
     inkscape:connector-curvature="0"
     transform="translate(-57.933567,-47.496257)" />
  <path
     style="fill:#816f88;fill-opacity:1;fill-rule:evenodd;stroke:none"
     clip-path="url(#clipEmfPath1)"
     d="m 292.496,650.657 0,24.137 2.249,0 0,-24.137 -2.249,0 z"
     id="path152"
     inkscape:connector-curvature="0"
     transform="translate(-57.933567,-47.496257)" />
  <path
     style="fill:#837088;fill-opacity:1;fill-rule:evenodd;stroke:none"
     clip-path="url(#clipEmfPath1)"
     d="m 294.745,650.657 0,24.137 1.499,0 0,-24.137 -1.499,0 z"
     id="path154"
     inkscape:connector-curvature="0"
     transform="translate(-57.933567,-47.496257)" />
  <path
     style="fill:#857187;fill-opacity:1;fill-rule:evenodd;stroke:none"
     clip-path="url(#clipEmfPath1)"
     d="m 296.244,650.657 0,24.137 2.099,0 0,-24.137 -2.099,0 z"
     id="path156"
     inkscape:connector-curvature="0"
     transform="translate(-57.933567,-47.496257)" />
  <path
     style="fill:#877287;fill-opacity:1;fill-rule:evenodd;stroke:none"
     clip-path="url(#clipEmfPath1)"
     d="m 298.343,650.657 0,24.137 1.649,0 0,-24.137 -1.649,0 z"
     id="path158"
     inkscape:connector-curvature="0"
     transform="translate(-57.933567,-47.496257)" />
  <path
     style="fill:#897486;fill-opacity:1;fill-rule:evenodd;stroke:none"
     clip-path="url(#clipEmfPath1)"
     d="m 299.992,650.657 0,24.137 2.099,0 0,-24.137 -2.099,0 z"
     id="path160"
     inkscape:connector-curvature="0"
     transform="translate(-57.933567,-47.496257)" />
  <path
     style="fill:#8b7585;fill-opacity:1;fill-rule:evenodd;stroke:none"
     clip-path="url(#clipEmfPath1)"
     d="m 302.091,650.657 0,24.137 1.499,0 0,-24.137 -1.499,0 z"
     id="path162"
     inkscape:connector-curvature="0"
     transform="translate(-57.933567,-47.496257)" />
  <path
     style="fill:#8d7784;fill-opacity:1;fill-rule:evenodd;stroke:none"
     clip-path="url(#clipEmfPath1)"
     d="m 303.59,650.657 0,24.137 2.249,0 0,-24.137 -2.249,0 z"
     id="path164"
     inkscape:connector-curvature="0"
     transform="translate(-57.933567,-47.496257)" />
  <path
     style="fill:#8f7884;fill-opacity:1;fill-rule:evenodd;stroke:none"
     clip-path="url(#clipEmfPath1)"
     d="m 305.839,650.657 0,24.137 1.499,0 0,-24.137 -1.499,0 z"
     id="path166"
     inkscape:connector-curvature="0"
     transform="translate(-57.933567,-47.496257)" />
  <path
     style="fill:#917a83;fill-opacity:1;fill-rule:evenodd;stroke:none"
     clip-path="url(#clipEmfPath1)"
     d="m 307.338,650.657 0,24.137 2.399,0 0,-24.137 -2.399,0 z"
     id="path168"
     inkscape:connector-curvature="0"
     transform="translate(-57.933567,-47.496257)" />
  <path
     style="fill:#937c83;fill-opacity:1;fill-rule:evenodd;stroke:none"
     clip-path="url(#clipEmfPath1)"
     d="m 309.737,650.657 0,24.137 1.649,0 0,-24.137 -1.649,0 z"
     id="path170"
     inkscape:connector-curvature="0"
     transform="translate(-57.933567,-47.496257)" />
  <path
     style="fill:#957d82;fill-opacity:1;fill-rule:evenodd;stroke:none"
     clip-path="url(#clipEmfPath1)"
     d="m 311.386,650.657 0,24.137 2.099,0 0,-24.137 -2.099,0 z"
     id="path172"
     inkscape:connector-curvature="0"
     transform="translate(-57.933567,-47.496257)" />
  <path
     style="fill:#977e81;fill-opacity:1;fill-rule:evenodd;stroke:none"
     clip-path="url(#clipEmfPath1)"
     d="m 313.485,650.657 0,24.137 2.249,0 0,-24.137 -2.249,0 z"
     id="path174"
     inkscape:connector-curvature="0"
     transform="translate(-57.933567,-47.496257)" />
  <path
     style="fill:#997f80;fill-opacity:1;fill-rule:evenodd;stroke:none"
     clip-path="url(#clipEmfPath1)"
     d="m 315.734,650.657 0,24.137 1.499,0 0,-24.137 -1.499,0 z"
     id="path176"
     inkscape:connector-curvature="0"
     transform="translate(-57.933567,-47.496257)" />
  <path
     style="fill:#9b817f;fill-opacity:1;fill-rule:evenodd;stroke:none"
     clip-path="url(#clipEmfPath1)"
     d="m 317.233,650.657 0,24.137 2.099,0 0,-24.137 -2.099,0 z"
     id="path178"
     inkscape:connector-curvature="0"
     transform="translate(-57.933567,-47.496257)" />
  <path
     style="fill:#9d827f;fill-opacity:1;fill-rule:evenodd;stroke:none"
     clip-path="url(#clipEmfPath1)"
     d="m 319.332,650.657 0,24.137 1.649,0 0,-24.137 -1.649,0 z"
     id="path180"
     inkscape:connector-curvature="0"
     transform="translate(-57.933567,-47.496257)" />
  <path
     style="fill:#9f847d;fill-opacity:1;fill-rule:evenodd;stroke:none"
     clip-path="url(#clipEmfPath1)"
     d="m 320.981,650.657 0,24.137 2.399,0 0,-24.137 -2.399,0 z"
     id="path182"
     inkscape:connector-curvature="0"
     transform="translate(-57.933567,-47.496257)" />
  <path
     style="fill:#a1867c;fill-opacity:1;fill-rule:evenodd;stroke:none"
     clip-path="url(#clipEmfPath1)"
     d="m 323.38,650.657 0,24.137 1.499,0 0,-24.137 -1.499,0 z"
     id="path184"
     inkscape:connector-curvature="0"
     transform="translate(-57.933567,-47.496257)" />
  <path
     style="fill:#a3877c;fill-opacity:1;fill-rule:evenodd;stroke:none"
     clip-path="url(#clipEmfPath1)"
     d="m 324.879,650.657 0,24.137 2.249,0 0,-24.137 -2.249,0 z"
     id="path186"
     inkscape:connector-curvature="0"
     transform="translate(-57.933567,-47.496257)" />
  <path
     style="fill:#a5897b;fill-opacity:1;fill-rule:evenodd;stroke:none"
     clip-path="url(#clipEmfPath1)"
     d="m 327.128,650.657 0,24.137 2.098,0 0,-24.137 -2.098,0 z"
     id="path188"
     inkscape:connector-curvature="0"
     transform="translate(-57.933567,-47.496257)" />
  <path
     style="fill:#a7897a;fill-opacity:1;fill-rule:evenodd;stroke:none"
     clip-path="url(#clipEmfPath1)"
     d="m 329.226,650.657 0,24.137 1.5,0 0,-24.137 -1.5,0 z"
     id="path190"
     inkscape:connector-curvature="0"
     transform="translate(-57.933567,-47.496257)" />
  <path
     style="fill:#a98b79;fill-opacity:1;fill-rule:evenodd;stroke:none"
     clip-path="url(#clipEmfPath1)"
     d="m 330.726,650.657 0,24.137 2.548,0 0,-24.137 -2.548,0 z"
     id="path192"
     inkscape:connector-curvature="0"
     transform="translate(-57.933567,-47.496257)" />
  <path
     style="fill:#ab8d78;fill-opacity:1;fill-rule:evenodd;stroke:none"
     clip-path="url(#clipEmfPath1)"
     d="m 333.274,650.657 0,24.137 2.399,0 0,-24.137 -2.399,0 z"
     id="path194"
     inkscape:connector-curvature="0"
     transform="translate(-57.933567,-47.496257)" />
  <path
     style="fill:#ad8f77;fill-opacity:1;fill-rule:evenodd;stroke:none"
     clip-path="url(#clipEmfPath1)"
     d="m 335.673,650.657 0,24.137 1.649,0 0,-24.137 -1.649,0 z"
     id="path196"
     inkscape:connector-curvature="0"
     transform="translate(-57.933567,-47.496257)" />
  <path
     style="fill:#af9076;fill-opacity:1;fill-rule:evenodd;stroke:none"
     clip-path="url(#clipEmfPath1)"
     d="m 337.322,650.657 0,24.137 2.099,0 0,-24.137 -2.099,0 z"
     id="path198"
     inkscape:connector-curvature="0"
     transform="translate(-57.933567,-47.496257)" />
  <path
     style="fill:#b19175;fill-opacity:1;fill-rule:evenodd;stroke:none"
     clip-path="url(#clipEmfPath1)"
     d="m 339.421,650.657 0,24.137 2.399,0 0,-24.137 -2.399,0 z"
     id="path200"
     inkscape:connector-curvature="0"
     transform="translate(-57.933567,-47.496257)" />
  <path
     style="fill:#b39373;fill-opacity:1;fill-rule:evenodd;stroke:none"
     clip-path="url(#clipEmfPath1)"
     d="m 341.82,650.657 0,24.137 2.249,0 0,-24.137 -2.249,0 z"
     id="path202"
     inkscape:connector-curvature="0"
     transform="translate(-57.933567,-47.496257)" />
  <path
     style="fill:#b59473;fill-opacity:1;fill-rule:evenodd;stroke:none"
     clip-path="url(#clipEmfPath1)"
     d="m 344.069,650.657 0,24.137 1.499,0 0,-24.137 -1.499,0 z"
     id="path204"
     inkscape:connector-curvature="0"
     transform="translate(-57.933567,-47.496257)" />
  <path
     style="fill:#b79572;fill-opacity:1;fill-rule:evenodd;stroke:none"
     clip-path="url(#clipEmfPath1)"
     d="m 345.568,650.657 0,24.137 2.549,0 0,-24.137 -2.549,0 z"
     id="path206"
     inkscape:connector-curvature="0"
     transform="translate(-57.933567,-47.496257)" />
  <path
     style="fill:#b99770;fill-opacity:1;fill-rule:evenodd;stroke:none"
     clip-path="url(#clipEmfPath1)"
     d="m 348.117,650.657 0,24.137 2.398,0 0,-24.137 -2.398,0 z"
     id="path208"
     inkscape:connector-curvature="0"
     transform="translate(-57.933567,-47.496257)" />
  <path
     style="fill:#bb996f;fill-opacity:1;fill-rule:evenodd;stroke:none"
     clip-path="url(#clipEmfPath1)"
     d="m 350.515,650.657 0,24.137 2.549,0 0,-24.137 -2.549,0 z"
     id="path210"
     inkscape:connector-curvature="0"
     transform="translate(-57.933567,-47.496257)" />
  <path
     style="fill:#bd9b6e;fill-opacity:1;fill-rule:evenodd;stroke:none"
     clip-path="url(#clipEmfPath1)"
     d="m 353.064,650.657 0,24.137 2.099,0 0,-24.137 -2.099,0 z"
     id="path212"
     inkscape:connector-curvature="0"
     transform="translate(-57.933567,-47.496257)" />
  <path
     style="fill:#bf9b6d;fill-opacity:1;fill-rule:evenodd;stroke:none"
     clip-path="url(#clipEmfPath1)"
     d="m 355.163,650.657 0,24.137 1.499,0 0,-24.137 -1.499,0 z"
     id="path214"
     inkscape:connector-curvature="0"
     transform="translate(-57.933567,-47.496257)" />
  <path
     style="fill:#c19d6c;fill-opacity:1;fill-rule:evenodd;stroke:none"
     clip-path="url(#clipEmfPath1)"
     d="m 356.662,650.657 0,24.137 2.549,0 0,-24.137 -2.549,0 z"
     id="path216"
     inkscape:connector-curvature="0"
     transform="translate(-57.933567,-47.496257)" />
  <path
     style="fill:#c39e6a;fill-opacity:1;fill-rule:evenodd;stroke:none"
     clip-path="url(#clipEmfPath1)"
     d="m 359.211,650.657 0,24.137 2.398,0 0,-24.137 -2.398,0 z"
     id="path218"
     inkscape:connector-curvature="0"
     transform="translate(-57.933567,-47.496257)" />
  <path
     style="fill:#c5a069;fill-opacity:1;fill-rule:evenodd;stroke:none"
     clip-path="url(#clipEmfPath1)"
     d="m 361.609,650.657 0,24.137 2.549,0 0,-24.137 -2.549,0 z"
     id="path220"
     inkscape:connector-curvature="0"
     transform="translate(-57.933567,-47.496257)" />
  <path
     style="fill:#c7a167;fill-opacity:1;fill-rule:evenodd;stroke:none"
     clip-path="url(#clipEmfPath1)"
     d="m 364.158,650.657 0,24.137 2.399,0 0,-24.137 -2.399,0 z"
     id="path222"
     inkscape:connector-curvature="0"
     transform="translate(-57.933567,-47.496257)" />
  <path
     style="fill:#c9a366;fill-opacity:1;fill-rule:evenodd;stroke:none"
     clip-path="url(#clipEmfPath1)"
     d="m 366.557,650.657 0,24.137 2.548,0 0,-24.137 -2.548,0 z"
     id="path224"
     inkscape:connector-curvature="0"
     transform="translate(-57.933567,-47.496257)" />
  <path
     style="fill:#cba565;fill-opacity:1;fill-rule:evenodd;stroke:none"
     clip-path="url(#clipEmfPath1)"
     d="m 369.105,650.657 0,24.137 2.399,0 0,-24.137 -2.399,0 z"
     id="path226"
     inkscape:connector-curvature="0"
     transform="translate(-57.933567,-47.496257)" />
  <path
     style="fill:#cda663;fill-opacity:1;fill-rule:evenodd;stroke:none"
     clip-path="url(#clipEmfPath1)"
     d="m 371.504,650.657 0,24.137 3.748,0 0,-24.137 -3.748,0 z"
     id="path228"
     inkscape:connector-curvature="0"
     transform="translate(-57.933567,-47.496257)" />
  <path
     style="fill:#cfa861;fill-opacity:1;fill-rule:evenodd;stroke:none"
     clip-path="url(#clipEmfPath1)"
     d="m 375.252,650.657 0,24.137 2.399,0 0,-24.137 -2.399,0 z"
     id="path230"
     inkscape:connector-curvature="0"
     transform="translate(-57.933567,-47.496257)" />
  <path
     style="fill:#d1a95f;fill-opacity:1;fill-rule:evenodd;stroke:none"
     clip-path="url(#clipEmfPath1)"
     d="m 377.651,650.657 0,24.137 2.549,0 0,-24.137 -2.549,0 z"
     id="path232"
     inkscape:connector-curvature="0"
     transform="translate(-57.933567,-47.496257)" />
  <path
     style="fill:#d3ab5e;fill-opacity:1;fill-rule:evenodd;stroke:none"
     clip-path="url(#clipEmfPath1)"
     d="m 380.2,650.657 0,24.137 2.398,0 0,-24.137 -2.398,0 z"
     id="path234"
     inkscape:connector-curvature="0"
     transform="translate(-57.933567,-47.496257)" />
  <path
     style="fill:#d5ac5c;fill-opacity:1;fill-rule:evenodd;stroke:none"
     clip-path="url(#clipEmfPath1)"
     d="m 382.598,650.657 0,24.137 3.748,0 0,-24.137 -3.748,0 z"
     id="path236"
     inkscape:connector-curvature="0"
     transform="translate(-57.933567,-47.496257)" />
  <path
     style="fill:#d7ae5a;fill-opacity:1;fill-rule:evenodd;stroke:none"
     clip-path="url(#clipEmfPath1)"
     d="m 386.346,650.657 0,24.137 2.399,0 0,-24.137 -2.399,0 z"
     id="path238"
     inkscape:connector-curvature="0"
     transform="translate(-57.933567,-47.496257)" />
  <path
     style="fill:#d9af59;fill-opacity:1;fill-rule:evenodd;stroke:none"
     clip-path="url(#clipEmfPath1)"
     d="m 388.745,650.657 0,24.137 2.549,0 0,-24.137 -2.549,0 z"
     id="path240"
     inkscape:connector-curvature="0"
     transform="translate(-57.933567,-47.496257)" />
  <path
     style="fill:#dab057;fill-opacity:1;fill-rule:evenodd;stroke:none"
     clip-path="url(#clipEmfPath1)"
     d="m 391.294,650.657 0,24.137 2.399,0 0,-24.137 -2.399,0 z"
     id="path242"
     inkscape:connector-curvature="0"
     transform="translate(-57.933567,-47.496257)" />
  <path
     style="fill:#dcb155;fill-opacity:1;fill-rule:evenodd;stroke:none"
     clip-path="url(#clipEmfPath1)"
     d="m 393.693,650.657 0,24.137 2.548,0 0,-24.137 -2.548,0 z"
     id="path244"
     inkscape:connector-curvature="0"
     transform="translate(-57.933567,-47.496257)" />
  <path
     style="fill:#deb354;fill-opacity:1;fill-rule:evenodd;stroke:none"
     clip-path="url(#clipEmfPath1)"
     d="m 396.241,650.657 0,24.137 2.399,0 0,-24.137 -2.399,0 z"
     id="path246"
     inkscape:connector-curvature="0"
     transform="translate(-57.933567,-47.496257)" />
  <path
     style="fill:#dfb452;fill-opacity:1;fill-rule:evenodd;stroke:none"
     clip-path="url(#clipEmfPath1)"
     d="m 398.64,650.657 0,24.137 2.399,0 0,-24.137 -2.399,0 z"
     id="path248"
     inkscape:connector-curvature="0"
     transform="translate(-57.933567,-47.496257)" />
  <path
     style="fill:#e1b551;fill-opacity:1;fill-rule:evenodd;stroke:none"
     clip-path="url(#clipEmfPath1)"
     d="m 401.039,650.657 0,24.137 2.548,0 0,-24.137 -2.548,0 z"
     id="path250"
     inkscape:connector-curvature="0"
     transform="translate(-57.933567,-47.496257)" />
  <path
     style="fill:#e2b64f;fill-opacity:1;fill-rule:evenodd;stroke:none"
     clip-path="url(#clipEmfPath1)"
     d="m 403.587,650.657 0,24.137 2.399,0 0,-24.137 -2.399,0 z"
     id="path252"
     inkscape:connector-curvature="0"
     transform="translate(-57.933567,-47.496257)" />
  <path
     style="fill:#e3b74d;fill-opacity:1;fill-rule:evenodd;stroke:none"
     clip-path="url(#clipEmfPath1)"
     d="m 405.986,650.657 0,24.137 2.549,0 0,-24.137 -2.549,0 z"
     id="path254"
     inkscape:connector-curvature="0"
     transform="translate(-57.933567,-47.496257)" />
  <path
     style="fill:#e5b84c;fill-opacity:1;fill-rule:evenodd;stroke:none"
     clip-path="url(#clipEmfPath1)"
     d="m 408.535,650.657 0,24.137 2.398,0 0,-24.137 -2.398,0 z"
     id="path256"
     inkscape:connector-curvature="0"
     transform="translate(-57.933567,-47.496257)" />
  <path
     style="fill:#e6b94a;fill-opacity:1;fill-rule:evenodd;stroke:none"
     clip-path="url(#clipEmfPath1)"
     d="m 410.933,650.657 0,24.137 3.748,0 0,-24.137 -3.748,0 z"
     id="path258"
     inkscape:connector-curvature="0"
     transform="translate(-57.933567,-47.496257)" />
  <path
     style="fill:#e8ba48;fill-opacity:1;fill-rule:evenodd;stroke:none"
     clip-path="url(#clipEmfPath1)"
     d="m 414.681,650.657 0,24.137 2.549,0 0,-24.137 -2.549,0 z"
     id="path260"
     inkscape:connector-curvature="0"
     transform="translate(-57.933567,-47.496257)" />
  <path
     style="fill:#e9bb46;fill-opacity:1;fill-rule:evenodd;stroke:none"
     clip-path="url(#clipEmfPath1)"
     d="m 417.23,650.657 0,24.137 3.598,0 0,-24.137 -3.598,0 z"
     id="path262"
     inkscape:connector-curvature="0"
     transform="translate(-57.933567,-47.496257)" />
  <path
     style="fill:#ebbc44;fill-opacity:1;fill-rule:evenodd;stroke:none"
     clip-path="url(#clipEmfPath1)"
     d="m 420.828,650.657 0,24.137 2.549,0 0,-24.137 -2.549,0 z"
     id="path264"
     inkscape:connector-curvature="0"
     transform="translate(-57.933567,-47.496257)" />
  <path
     style="fill:#ecbd42;fill-opacity:1;fill-rule:evenodd;stroke:none"
     clip-path="url(#clipEmfPath1)"
     d="m 423.377,650.657 0,24.137 3.598,0 0,-24.137 -3.598,0 z"
     id="path266"
     inkscape:connector-curvature="0"
     transform="translate(-57.933567,-47.496257)" />
  <path
     style="fill:#edbf40;fill-opacity:1;fill-rule:evenodd;stroke:none"
     clip-path="url(#clipEmfPath1)"
     d="m 426.975,650.657 0,24.137 2.549,0 0,-24.137 -2.549,0 z"
     id="path268"
     inkscape:connector-curvature="0"
     transform="translate(-57.933567,-47.496257)" />
  <path
     style="fill:#eebf3e;fill-opacity:1;fill-rule:evenodd;stroke:none"
     clip-path="url(#clipEmfPath1)"
     d="m 429.524,650.657 0,24.137 2.698,0 0,-24.137 -2.698,0 z"
     id="path270"
     inkscape:connector-curvature="0"
     transform="translate(-57.933567,-47.496257)" />
  <path
     style="fill:#efc03c;fill-opacity:1;fill-rule:evenodd;stroke:none"
     clip-path="url(#clipEmfPath1)"
     d="m 432.222,650.657 0,24.137 3.448,0 0,-24.137 -3.448,0 z"
     id="path272"
     inkscape:connector-curvature="0"
     transform="translate(-57.933567,-47.496257)" />
  <path
     style="fill:#f1c13a;fill-opacity:1;fill-rule:evenodd;stroke:none"
     clip-path="url(#clipEmfPath1)"
     d="m 435.67,650.657 0,24.137 2.699,0 0,-24.137 -2.699,0 z"
     id="path274"
     inkscape:connector-curvature="0"
     transform="translate(-57.933567,-47.496257)" />
  <path
     style="fill:#f2c238;fill-opacity:1;fill-rule:evenodd;stroke:none"
     clip-path="url(#clipEmfPath1)"
     d="m 438.369,650.657 0,24.137 3.448,0 0,-24.137 -3.448,0 z"
     id="path276"
     inkscape:connector-curvature="0"
     transform="translate(-57.933567,-47.496257)" />
  <path
     style="fill:#f3c336;fill-opacity:1;fill-rule:evenodd;stroke:none"
     clip-path="url(#clipEmfPath1)"
     d="m 441.817,650.657 0,24.137 3.748,0 0,-24.137 -3.748,0 z"
     id="path278"
     inkscape:connector-curvature="0"
     transform="translate(-57.933567,-47.496257)" />
  <path
     style="fill:#f4c434;fill-opacity:1;fill-rule:evenodd;stroke:none"
     clip-path="url(#clipEmfPath1)"
     d="m 445.565,650.657 0,24.137 2.399,0 0,-24.137 -2.399,0 z"
     id="path280"
     inkscape:connector-curvature="0"
     transform="translate(-57.933567,-47.496257)" />
  <path
     style="fill:#f5c432;fill-opacity:1;fill-rule:evenodd;stroke:none"
     clip-path="url(#clipEmfPath1)"
     d="m 447.964,650.657 0,24.137 3.748,0 0,-24.137 -3.748,0 z"
     id="path282"
     inkscape:connector-curvature="0"
     transform="translate(-57.933567,-47.496257)" />
  <path
     style="fill:#f6c530;fill-opacity:1;fill-rule:evenodd;stroke:none"
     clip-path="url(#clipEmfPath1)"
     d="m 451.712,650.657 0,24.137 2.399,0 0,-24.137 -2.399,0 z"
     id="path284"
     inkscape:connector-curvature="0"
     transform="translate(-57.933567,-47.496257)" />
  <path
     style="fill:#f6c52e;fill-opacity:1;fill-rule:evenodd;stroke:none"
     clip-path="url(#clipEmfPath1)"
     d="m 454.111,650.657 0,24.137 4.947,0 0,-24.137 -4.947,0 z"
     id="path286"
     inkscape:connector-curvature="0"
     transform="translate(-57.933567,-47.496257)" />
  <path
     style="fill:#f8c62c;fill-opacity:1;fill-rule:evenodd;stroke:none"
     clip-path="url(#clipEmfPath1)"
     d="m 459.058,650.657 0,24.137 2.549,0 0,-24.137 -2.549,0 z"
     id="path288"
     inkscape:connector-curvature="0"
     transform="translate(-57.933567,-47.496257)" />
  <path
     style="fill:#f8c72a;fill-opacity:1;fill-rule:evenodd;stroke:none"
     clip-path="url(#clipEmfPath1)"
     d="m 461.607,650.657 0,24.137 3.598,0 0,-24.137 -3.598,0 z"
     id="path290"
     inkscape:connector-curvature="0"
     transform="translate(-57.933567,-47.496257)" />
  <path
     style="fill:#f9c728;fill-opacity:1;fill-rule:evenodd;stroke:none"
     clip-path="url(#clipEmfPath1)"
     d="m 465.205,650.657 0,24.137 2.249,0 0,-24.137 -2.249,0 z"
     id="path292"
     inkscape:connector-curvature="0"
     transform="translate(-57.933567,-47.496257)" />
  <path
     style="fill:#f9c826;fill-opacity:1;fill-rule:evenodd;stroke:none"
     clip-path="url(#clipEmfPath1)"
     d="m 467.454,650.657 0,24.137 2.698,0 0,-24.137 -2.698,0 z"
     id="path294"
     inkscape:connector-curvature="0"
     transform="translate(-57.933567,-47.496257)" />
  <path
     style="fill:#fac824;fill-opacity:1;fill-rule:evenodd;stroke:none"
     clip-path="url(#clipEmfPath1)"
     d="m 470.152,650.657 0,24.137 3.748,0 0,-24.137 -3.748,0 z"
     id="path296"
     inkscape:connector-curvature="0"
     transform="translate(-57.933567,-47.496257)" />
  <path
     style="fill:#fbc922;fill-opacity:1;fill-rule:evenodd;stroke:none"
     clip-path="url(#clipEmfPath1)"
     d="m 473.9,650.657 0,24.137 1.499,0 0,-24.137 -1.499,0 z"
     id="path298"
     inkscape:connector-curvature="0"
     transform="translate(-57.933567,-47.496257)" />
  <path
     style="fill:#fbc920;fill-opacity:1;fill-rule:evenodd;stroke:none"
     clip-path="url(#clipEmfPath1)"
     d="m 475.399,650.657 0,24.137 4.648,0 0,-24.137 -4.648,0 z"
     id="path300"
     inkscape:connector-curvature="0"
     transform="translate(-57.933567,-47.496257)" />
  <path
     style="fill:#fcca1e;fill-opacity:1;fill-rule:evenodd;stroke:none"
     clip-path="url(#clipEmfPath1)"
     d="m 480.047,650.657 0,24.137 2.848,0 0,-24.137 -2.848,0 z"
     id="path302"
     inkscape:connector-curvature="0"
     transform="translate(-57.933567,-47.496257)" />
  <path
     style="fill:#fcca1c;fill-opacity:1;fill-rule:evenodd;stroke:none"
     clip-path="url(#clipEmfPath1)"
     d="m 482.895,650.657 0,24.137 1.2,0 0,-24.137 -1.2,0 z"
     id="path304"
     inkscape:connector-curvature="0"
     transform="translate(-57.933567,-47.496257)" />
  <path
     style="fill:#fcca1a;fill-opacity:1;fill-rule:evenodd;stroke:none"
     clip-path="url(#clipEmfPath1)"
     d="m 484.095,650.657 0,24.137 5.547,0 0,-24.137 -5.547,0 z"
     id="path306"
     inkscape:connector-curvature="0"
     transform="translate(-57.933567,-47.496257)" />
  <path
     style="fill:#fdca18;fill-opacity:1;fill-rule:evenodd;stroke:none"
     clip-path="url(#clipEmfPath1)"
     d="m 489.642,650.657 0,24.137 2.399,0 0,-24.137 -2.399,0 z"
     id="path308"
     inkscape:connector-curvature="0"
     transform="translate(-57.933567,-47.496257)" />
  <path
     style="fill:#fdcb16;fill-opacity:1;fill-rule:evenodd;stroke:none"
     clip-path="url(#clipEmfPath1)"
     d="m 492.041,650.657 0,24.137 2.398,0 0,-24.137 -2.398,0 z"
     id="path310"
     inkscape:connector-curvature="0"
     transform="translate(-57.933567,-47.496257)" />
  <path
     style="fill:#fecb14;fill-opacity:1;fill-rule:evenodd;stroke:none"
     clip-path="url(#clipEmfPath1)"
     d="m 494.439,650.657 0,24.137 0.9,0 0,-24.137 -0.9,0 z"
     id="path312"
     inkscape:connector-curvature="0"
     transform="translate(-57.933567,-47.496257)" />
  <path
     style="fill:#fecb12;fill-opacity:1;fill-rule:evenodd;stroke:none"
     clip-path="url(#clipEmfPath1)"
     d="m 495.339,650.657 0,24.137 3.298,0 0,-24.137 -3.298,0 z"
     id="path314"
     inkscape:connector-curvature="0"
     transform="translate(-57.933567,-47.496257)" />
  <path
     style="fill:#fecb10;fill-opacity:1;fill-rule:evenodd;stroke:none"
     clip-path="url(#clipEmfPath1)"
     d="m 498.637,650.657 0,24.137 3.149,0 0,-24.137 -3.149,0 z"
     id="path316"
     inkscape:connector-curvature="0"
     transform="translate(-57.933567,-47.496257)" />
  <path
     style="fill:#fecc0e;fill-opacity:1;fill-rule:evenodd;stroke:none"
     clip-path="url(#clipEmfPath1)"
     d="m 501.786,650.657 0,24.137 0.599,0 0,-24.137 -0.599,0 z"
     id="path318"
     inkscape:connector-curvature="0"
     transform="translate(-57.933567,-47.496257)" />
  <path
     style="fill:#ffcc0c;fill-opacity:1;fill-rule:evenodd;stroke:none"
     clip-path="url(#clipEmfPath1)"
     d="m 502.385,650.657 0,24.137 2.999,0 0,-24.137 -2.999,0 z"
     id="path320"
     inkscape:connector-curvature="0"
     transform="translate(-57.933567,-47.496257)" />
  <path
     style="fill:#ffcc0a;fill-opacity:1;fill-rule:evenodd;stroke:none"
     clip-path="url(#clipEmfPath1)"
     d="m 505.384,650.657 0,24.137 0.299,0 0,-24.137 -0.299,0 z"
     id="path322"
     inkscape:connector-curvature="0"
     transform="translate(-57.933567,-47.496257)" />
  <path
     style="fill:#ffcc08;fill-opacity:1;fill-rule:evenodd;stroke:none"
     clip-path="url(#clipEmfPath1)"
     d="m 505.683,650.657 0,24.137 0.15,0 0,-24.137 -0.15,0 z"
     id="path324"
     inkscape:connector-curvature="0"
     transform="translate(-57.933567,-47.496257)" />
  <path
     style="fill:#ffcc06;fill-opacity:1;fill-rule:evenodd;stroke:none"
     clip-path="url(#clipEmfPath1)"
     d="m 505.833,650.657 0,24.137 0.3,0 0,-24.137 -0.3,0 z"
     id="path326"
     inkscape:connector-curvature="0"
     transform="translate(-57.933567,-47.496257)" />
  <path
     style="fill:#ffcc04;fill-opacity:1;fill-rule:evenodd;stroke:none"
     clip-path="url(#clipEmfPath1)"
     d="m 506.133,650.657 0,24.137 0.15,0 0,-24.137 -0.15,0 z"
     id="path328"
     inkscape:connector-curvature="0"
     transform="translate(-57.933567,-47.496257)" />
  <path
     style="fill:#ffcc02;fill-opacity:1;fill-rule:evenodd;stroke:none"
     clip-path="url(#clipEmfPath1)"
     d="m 506.283,650.657 0,24.137 0.3,0 0,-24.137 -0.3,0 z"
     id="path330"
     inkscape:connector-curvature="0"
     transform="translate(-57.933567,-47.496257)" />
  <path
     style="fill:#ffcc00;fill-opacity:1;fill-rule:evenodd;stroke:none"
     clip-path="url(#clipEmfPath1)"
     d="m 506.583,650.657 0,24.137 1.349,0 0,-24.137 -1.349,0 z"
     id="path332"
     inkscape:connector-curvature="0"
     transform="translate(-57.933567,-47.496257)" />
  <flowRoot
     xml:space="preserve"
     id="flowRoot3686"
     style="font-style:normal;font-weight:normal;font-size:40px;line-height:125%;font-family:sans-serif;letter-spacing:0px;word-spacing:0px;fill:#000000;fill-opacity:1;stroke:none;stroke-width:1px;stroke-linecap:butt;stroke-linejoin:miter;stroke-opacity:1"
     transform="translate(-57.933567,-47.496257)"><flowRegion
       id="flowRegion3688"><rect
         id="rect3690"
         width="23.824738"
         height="85.769051"
         x="998.25647"
         y="290.8548" /></flowRegion><flowPara
       id="flowPara3692" /></flowRoot>  <g
     inkscape:groupmode="layer"
     id="layer1"
     inkscape:label="logo"
     transform="translate(1.9999915,2.0000001)">
    <path
       style="fill:#0b3999;fill-opacity:1;fill-rule:evenodd;stroke:none"
       d="m 0,8.9988138 10.006471,0 c 5.52704,0 10.006753,17.9027672 10.006753,39.9838332 0,22.086426 -4.479713,39.983836 -10.006753,39.983836 L 0,88.966483 Z"
       id="path12"
       inkscape:connector-curvature="0" />
    <path
       style="fill:#67718e;fill-opacity:1;fill-rule:evenodd;stroke:none"
       d="m 17.395049,7.4333268 8.710789,-0.761717 c 4.813017,-0.417689 10.276275,17.0724692 12.201595,39.0637892 1.919679,21.996404 -0.417971,40.168974 -5.230707,40.592024 l -8.710788,0.76172 z"
       id="path14"
       inkscape:connector-curvature="0" />
    <path
       style="fill:#a99878;fill-opacity:1;fill-rule:evenodd;stroke:none"
       d="m 32.526675,5.9310588 7.383216,-1.301045 c 4.077831,-0.719102 10.487941,16.3268382 14.322211,38.0695202 3.83456,21.742399 3.63898,39.952229 -0.43885,40.671329 l -7.38322,1.30104 z"
       id="path16"
       inkscape:connector-curvature="0" />
    <path
       style="fill:#e9bf44;fill-opacity:1;fill-rule:evenodd;stroke:none"
       d="m 45.368072,4.5032958 6.03447,-1.618544 c 3.3322,-0.893798 10.66772,15.6763152 16.37962,37.0010272 5.71754,21.330074 7.64794,39.338674 4.31574,40.232474 l -6.03448,1.61854 z"
       id="path18"
       inkscape:connector-curvature="0" />
    <path
       style="fill:#fecb0d;fill-opacity:1;fill-rule:evenodd;stroke:none"
       d="m 55.739452,1.7476788 4.69646,-1.70829201 c 2.59701,-0.941493 10.82125,15.11046021 18.3738,35.85859221 7.54718,20.748414 11.56659,38.333684 8.97523,39.275174 l -4.69674,1.71365 z"
       id="path20"
       inkscape:connector-curvature="0" />
  </g>
</svg>
